<svg xmlns="http://www.w3.org/2000/svg" viewBox="0 0 570.92 520.07"><defs><style>.cls-1{font-size:118.87px;font-family:BodoniSevITC-Book, Bodoni Seventytwo ITC;}.cls-1,.cls-5{fill:#fff;}.cls-2{letter-spacing:-0.05em;}.cls-3{letter-spacing:-0.03em;}.cls-4{letter-spacing:0em;}</style></defs><title>Asset 2</title><g id="Layer_2" data-name="Layer 2"><g id="Layer_1-2" data-name="Layer 1"><text class="cls-1" transform="translate(0 488.45)"><tspan class="cls-2">P</tspan><tspan class="cls-3" x="54.08" y="0">A</tspan><tspan x="121.96" y="0">GEAN</tspan><tspan class="cls-4" x="419.72" y="0">T</tspan><tspan x="489.61" y="0">S </tspan></text><path class="cls-5" d="M284.49,372,38.84,126.37,165.21,0H403.67L530.14,126.37ZM73.1,126.37,284.49,337.75,495.87,126.37,393.64,24.23H175.25Z"/><path class="cls-5" d="M323.15,142.71v7.72H296V267.91h27.19v7.74H243.93v-7.74h25.85V150.43H243.93v-7.72h25.85V126.27c0-57.41,23.83-81.57,56.06-81.57,13.09,0,28.19,6,28.19,21.82,0,6.7-6.71,11.07-12.42,11.07-9.06,0-13.76-6.37-13.76-15.44,0-3.69,2.69-4,2.69-8.39,0-1.68-5.71-2-8.06-2-16.12,0-26.52,19.47-26.52,53v37.93Z"/><path class="cls-5" d="M380.32,146.07a12.14,12.14,0,1,1-12.14-12.14,12.15,12.15,0,0,1,12.14,12.14"/></g></g></svg>